#!OML:ASF F:\VICON\USERDATA\INSTALL\rory3\rory3.ASF
:FULLY-SPECIFIED
:DEGREES
326
root 0.325673 15.5819 1.70452 26.0975 -6.42492 -1.36005
lowerback 2.80806 -1.16171 -2.95131
upperback -6.657 -1.68574 1.47638
thorax -8.44848 -0.583648 3.38344
lowerneck -18.9615 -0.411231 -3.66197
upperneck 14.8536 -0.14447 3.09706
head 7.69759 0.0291685 1.6075
rclavicle -1.04362e-014 8.15017e-015
rhumerus -42.8205 5.14805 -84.9803
rradius 58.9299
rwrist 10.558
rhand -18.8332 -45.8286
rfingers 7.12502
rthumb 7.4662 -75.6768
lclavicle -1.04362e-014 8.15017e-015
lhumerus -36.6086 -15.6432 89.0733
lradius 55.2952
lwrist 4.85914
lhand -30.5481 -36.6255
lfingers 7.12502
lthumb -3.84671 -6.68043
rfemur -62.0534 4.88585 19.1399
rtibia 67.5517
rfoot -23.111 -17.894
rtoes -16.8608
lfemur -58.1433 0.943038 -17.1065
ltibia 65.6758
lfoot -27.7401 14.0547
ltoes -18.9057
327
root 0.329981 15.4394 1.71344 26.7346 -5.57787 -1.57493
lowerback 2.4479 -1.39184 -2.16381
upperback -6.94032 -1.93023 1.56169
thorax -8.54324 -0.749564 3.05021
lowerneck -18.5875 -0.499352 -4.03742
upperneck 13.8146 -0.256603 3.63031
head 7.29611 0.00809692 1.82128
rclavicle -1.81391e-014 2.28602e-014
rhumerus -42.9259 3.90032 -84.597
rradius 59.311
rwrist 12.1652
rhand -20.3925 -44.6953
rfingers 7.12502
rthumb 5.96087 -74.5914
lclavicle -1.81391e-014 2.28602e-014
lhumerus -36.9361 -15.4571 88.8656
lradius 54.7784
lwrist 2.62651
lhand -30.156 -37.4424
lfingers 7.12502
lthumb -3.46808 -7.49087
rfemur -63.8944 4.51747 19.5011
rtibia 69.9628
rfoot -24.7986 -17.7148
rtoes -14.0567
lfemur -60.5489 0.159468 -16.5004
ltibia 68.4114
lfoot -28.292 14.241
ltoes -18.7066
328
root 0.34691 15.2723 1.71862 26.7402 -5.02155 -1.7857
lowerback 2.7139 -1.54431 -1.41559
upperback -6.97303 -2.0845 1.5976
thorax -8.7469 -0.871047 2.69453
lowerneck -18.7425 -0.498059 -3.85075
upperneck 13.103 -0.257056 3.47232
head 7.08858 0.00620139 1.73309
rclavicle -1.55052e-014 -1.96797e-014
rhumerus -43.0124 2.73078 -84.2664
rradius 59.9193
rwrist 13.5625
rhand -22.5697 -43.0585
rfingers 7.12502
rthumb 3.85859 -73.0033
lclavicle -1.55052e-014 -1.96797e-014
lhumerus -37.1648 -15.092 88.5107
lradius 54.4984
lwrist 0.466024
lhand -29.8296 -38.0995
lfingers 7.12502
lthumb -3.15294 -8.14304
rfemur -65.2924 4.52158 19.6436
rtibia 72.4532
rfoot -25.762 -17.9102
rtoes -13.6059
lfemur -62.4578 -0.541462 -15.967
ltibia 71.5829
lfoot -28.8526 13.9102
ltoes -17.8431
329
root 0.356889 15.0729 1.71413 26.4666 -5.02982 -1.53493
lowerback 3.05279 -1.58477 -1.5596
upperback -6.79611 -2.15696 1.53459
thorax -8.74686 -0.89992 2.72335
lowerneck -18.9329 -0.471667 -3.54714
upperneck 12.3695 -0.210206 3.04904
head 6.8782 0.00796766 1.54519
rclavicle -2.37051e-014 6.75868e-015
rhumerus -42.7716 1.49477 -83.9181
rradius 60.2786
rwrist 14.4649
rhand -23.6419 -43.2276
rfingers 7.12502
rthumb 2.82321 -73.1886
lclavicle -2.37051e-014 6.75868e-015
lhumerus -37.2495 -14.5612 88.0756
lradius 54.6268
lwrist -1.5311
lhand -29.832 -38.6534
lfingers 7.12502
lthumb -3.15521 -8.69704
rfemur -66.723 4.82898 19.0913
rtibia 75.0661
rfoot -26.6239 -18.0652
rtoes -13.3426
lfemur -64.0876 -0.956223 -16.1386
ltibia 74.7065
lfoot -28.972 13.6456
ltoes -18.0748
330
root 0.360661 14.8815 1.70447 26.3324 -4.80847 -1.87827
lowerback 3.16853 -1.58149 -1.13056
upperback -6.60892 -2.11084 1.65585
thorax -8.62245 -0.904511 2.60516
lowerneck -19.0294 -0.461539 -3.17547
upperneck 11.6347 -0.196818 2.53596
head 6.65366 -0.0120305 1.3146
rclavicle 1.53561e-014 -8.94531e-015
rhumerus -42.4879 0.288162 -83.694
rradius 61.2322
rwrist 12.8301
rhand -22.9548 -45.9519
rfingers 7.12502
rthumb 3.48674 -75.9031
lclavicle 1.53561e-014 -8.94531e-015
lhumerus -37.2852 -14.1218 87.6467
lradius 55.1304
lwrist -2.93128
lhand -29.8262 -39.0466
lfingers 7.12502
lthumb -3.14959 -9.0901
rfemur -67.9133 5.23814 19.3561
rtibia 77.3051
rfoot -27.202 -18.8023
rtoes -13.52
lfemur -65.7682 -0.985665 -15.6639
ltibia 77.6152
lfoot -28.8416 13.4301
ltoes -19.5797
331
root 0.365935 14.7367 1.68646 26.1244 -4.37217 -2.35581
lowerback 3.44037 -1.57923 -0.423559
upperback -6.43625 -2.04163 1.80972
thorax -8.6157 -0.911906 2.36972
lowerneck -19.2742 -0.456021 -2.78193
upperneck 11.0936 -0.195529 2.0036
head 6.51713 -0.038569 1.07601
rclavicle -1.7344e-014 1.09332e-014
rhumerus -42.5739 -0.475919 -83.5869
rradius 62.3329
rwrist 11.9967
rhand -24.0085 -47.3631
rfingers 7.12502
rthumb 2.46916 -77.3285
lclavicle -1.7344e-014 1.09332e-014
lhumerus -37.2379 -14.0633 87.323
lradius 55.7607
lwrist -3.2987
lhand -29.8581 -39.5843
lfingers 7.12502
lthumb -3.18041 -9.62831
rfemur -68.604 5.39143 20.0232
rtibia 78.9557
rfoot -27.64 -20.0569
rtoes -14.3046
lfemur -67.002 -0.942294 -15.0227
ltibia 79.8505
lfoot -28.793 13.3027
ltoes -20.9481
332
root 0.370034 14.6394 1.67141 25.7496 -4.26576 -2.25973
lowerback 3.84109 -1.56939 -0.394035
upperback -6.26385 -2.02626 1.78528
thorax -8.66648 -0.906351 2.33553
lowerneck -19.6357 -0.428643 -2.44891
upperneck 10.785 -0.163483 1.54288
head 6.47427 -0.0473418 0.875783
rclavicle 5.86415e-015 -1.02374e-014
rhumerus -42.643 -0.999534 -83.3704
rradius 63.6788
rwrist 10.6845
rhand -23.299 -48.0281
rfingers 7.12502
rthumb 3.15434 -77.9846
lclavicle 5.86415e-015 -1.02374e-014
lhumerus -37.3292 -14.1459 87.0181
lradius 56.5922
lwrist -2.94983
lhand -29.8794 -39.8597
lfingers 7.12502
lthumb -3.201 -9.904
rfemur -68.8788 5.20822 20.1216
rtibia 80.0626
rfoot -28.0214 -20.8847
rtoes -14.8203
lfemur -67.4658 -0.85575 -15.1774
ltibia 81.2552
lfoot -29.0263 13.3187
ltoes -21.4803
333
root 0.373076 14.588 1.67697 25.4528 -4.24247 -2.30545
lowerback 3.94165 -1.55362 -0.272561
upperback -6.11991 -1.99362 1.80169
thorax -8.57355 -0.898989 2.2804
lowerneck -19.9478 -0.420919 -2.24203
upperneck 10.6365 -0.151298 1.22541
head 6.47582 -0.0596043 0.740736
rclavicle 2.06239e-015 -1.53064e-014
rhumerus -42.5427 -1.31637 -83.1449
rradius 64.3637
rwrist 10.3377
rhand -25.0096 -48.1072
rfingers 7.12502
rthumb 1.50231 -78.0816
lclavicle 2.06239e-015 -1.53064e-014
lhumerus -37.5764 -14.1521 86.6962
lradius 57.7062
lwrist -2.19982
lhand -28.7963 -37.906
lfingers 7.12502
lthumb -2.155 -7.93717
rfemur -68.8093 4.90706 20.3864
rtibia 80.6474
rfoot -28.1483 -21.2729
rtoes -15.3328
lfemur -67.47 -0.602449 -15.2654
ltibia 81.9829
lfoot -29.5894 13.2095
ltoes -21.1631
